#!OML:ASF E:\VariousWalksJay\Project 1\Capture day 1\Session 1\Actor2.ASF
:FULLY-SPECIFIED
:DEGREES
948
root -4.6753 18.4808 -6.95113 206.79 -0.530306 -171.438
lowerback 9.33753 2.485 9.40778
upperback 2.70685 4.6052 1.61343
thorax -1.80966 2.45351 -4.05911
lowerneck -1.75551 2.30096 0.573866
upperneck -11.1482 2.6546 1.22972
head -3.2771 0.994759 0.253465
rclavicle 6.24184e-014 1.98785e-014
rhumerus 44.365 -3.73205 -4.39728
rradius 108.555
rwrist 2.25839
rhand -26.0737 -10.4327
rfingers 7.12502
rthumb 0.474567 -40.4119
lclavicle 6.24184e-014 1.98785e-014
lhumerus 74.8171 44.3887 13.6425
lradius 47.6694
lwrist -9.86514
lhand -25.7735 -10.575
lfingers 7.12502
lthumb 0.764462 19.4033
rfemur -23.2321 -14.9007 -2.24246
rtibia 131.514
rfoot -4.45356 8.56266
rtoes -17.3511
lfemur -27.5002 8.73297 -21.749
ltibia 12.0917
lfoot -7.31203 16.9714
ltoes -14.7355
949
root -4.73852 18.5311 -6.99977 207.452 -1.3866 -172.475
lowerback 9.7638 1.62642 8.41557
upperback 2.89759 3.41674 1.73795
thorax -2.07532 1.85967 -3.29318
lowerneck -2.41189 2.68154 0.93737
upperneck -11.6036 3.02724 0.581538
head -3.29595 1.1458 -0.0191262
rclavicle 1.35174e-014 1.19271e-015
rhumerus 41.0568 -3.39119 -4.42649
rradius 111.783
rwrist 4.57064
rhand -28.7054 -10.5316
rfingers 7.12502
rthumb -2.06722 -40.5014
lclavicle 1.35174e-014 1.19271e-015
lhumerus 86.131 44.3116 25.844
lradius 41.5642
lwrist -14.9484
lhand -30.1903 -12.317
lfingers 7.12502
lthumb -3.50127 17.6339
rfemur -28.1406 -17.294 -0.567888
rtibia 131.243
rfoot -5.52182 9.61434
rtoes -18.7761
lfemur -26.076 8.14642 -22.5475
ltibia 9.48083
lfoot -7.37501 16.1671
ltoes -16.0981
950
root -4.7968 18.5777 -7.05896 208.155 -2.38217 -173.585
lowerback 10.0534 1.25463 7.53838
upperback 3.05385 2.08428 1.89222
thorax -2.22234 0.870705 -2.4987
lowerneck -2.99254 3.03392 1.23303
upperneck -12.007 3.37062 0.067103
head -3.31234 1.27996 -0.235366
rclavicle -3.77691e-015 1.09332e-014
rhumerus 37.6845 -3.07055 -4.69295
rradius 114.377
rwrist 6.1461
rhand -30.6654 -10.5055
rfingers 7.12502
rthumb -3.96003 -40.4484
lclavicle -3.77691e-015 1.09332e-014
lhumerus 98.0032 42.046 39.0718
lradius 35.8635
lwrist -19.2454
lhand -33.2734 -12.7953
lfingers 7.12502
lthumb -6.4782 17.0856
rfemur -33.3177 -18.6048 2.25184
rtibia 129.917
rfoot -6.67688 10.176
rtoes -20.4871
lfemur -24.1731 7.4487 -23.1864
ltibia 6.58709
lfoot -7.08388 15.3806
ltoes -18.0814
951
root -4.85108 18.62 -7.13108 208.879 -3.49098 -174.655
lowerback 10.2332 0.391751 6.6881
upperback 3.17795 0.869483 2.06599
thorax -2.33081 0.266713 -1.70854
lowerneck -3.45667 3.37594 1.43944
upperneck -12.3441 3.71858 -0.314484
head -3.32983 1.41868 -0.393821
rclavicle 1.13307e-014 4.07509e-014
rhumerus 34.3624 -2.81455 -5.19097
rradius 116.448
rwrist 6.60562
rhand -31.6497 -10.2099
rfingers 7.12502
rthumb -4.91051 -40.133
lclavicle 1.13307e-014 4.07509e-014
lhumerus 108.63 37.4598 51.5886
lradius 30.7079
lwrist -21.9996
lhand -34.8368 -12.247
lfingers 7.12502
lthumb -7.98723 17.5821
rfemur -38.573 -18.7153 5.71532
rtibia 127.617
rfoot -7.9459 10.1955
rtoes -22.4215
lfemur -20.9807 6.6874 -23.5998
ltibia 1.92827
lfoot -5.7035 15.2981
ltoes -20.1063
952
root -4.90139 18.6553 -7.21854 209.614 -4.64904 -175.576
lowerback 10.2849 -0.444862 6.02262
upperback 3.24962 -0.299093 2.28439
thorax -2.37498 -0.312896 -0.969978
lowerneck -3.8179 3.73097 1.58206
upperneck -12.5809 4.10592 -0.611792
head -3.33256 1.58336 -0.514942
rclavicle -3.67752e-015 5.1684e-015
rhumerus 31.1816 -2.65184 -5.86865
rradius 118.049
rwrist 5.94458
rhand -31.7814 -9.49797
rfingers 7.12502
rthumb -5.03764 -39.4181
lclavicle -3.67752e-015 5.1684e-015
lhumerus 116.608 31.4444 61.8468
lradius 26.1488
lwrist -22.3084
lhand -34.7978 -11.3289
lfingers 7.12502
lthumb -7.94966 18.5016
rfemur -43.6396 -17.7234 9.26803
rtibia 124.452
rfoot -9.32156 9.67206
rtoes -24.4825
lfemur -18.8149 5.98835 -23.7107
ltibia -7.95139e-015
lfoot -5.38346 15.5379
ltoes -21.8823
953
root -4.94932 18.6779 -7.3213 210.298 -5.81441 -176.185
lowerback 10.2266 -1.23156 5.71237
upperback 3.28031 -1.37404 2.54963
thorax -2.36371 -0.846588 -0.390072
lowerneck -4.11098 2.90035 1.75018
upperneck -12.6725 4.80697 -0.633366
head -3.30801 2.76555 -0.605707
rclavicle -3.27995e-015 -1.93815e-014
rhumerus 28.2247 -2.5839 -6.64291
rradius 119.28
rwrist 4.2609
rhand -31.2123 -8.61667
rfingers 7.12502
rthumb -4.48811 -38.5491
lclavicle -3.27995e-015 -1.93815e-014
lhumerus 121.786 25.2298 69.5466
lradius 22.2118
lwrist -20.2526
lhand -33.692 -10.6732
lfingers 7.12502
lthumb -6.88221 19.1949
rfemur -48.2305 -15.8092 12.5877
rtibia 120.535
rfoot -10.7458 8.63567
rtoes -26.5886
lfemur -17.2265 5.48233 -23.393
ltibia -9.54166e-015
lfoot -5.73935 16.2418
ltoes -23.2016
954
root -4.99529 18.6807 -7.43829 210.857 -6.83563 -176.476
lowerback 10.0779 -1.92825 5.70765
upperback 3.27843 -2.30559 2.8093
thorax -2.31775 -1.30907 -0.00672234
lowerneck -4.31643 3.29666 1.7874
upperneck -12.6021 5.31531 -0.823563
head -3.23381 3.02315 -0.672855
rclavicle 1.59276e-014 2.42269e-014
rhumerus 25.5335 -2.54743 -7.42927
rradius 120.227
rwrist 1.87065
rhand -30.3057 -7.777
rfingers 7.12502
rthumb -3.61269 -37.7261
lclavicle 1.59276e-014 2.42269e-014
lhumerus 124.484 19.9968 74.8108
lradius 18.9081
lwrist -17.1507
lhand -31.8542 -10.1239
lfingers 7.12502
lthumb -5.10794 19.7945
rfemur -52.1776 -13.2438 15.3372
rtibia 116.022
rfoot -12.1681 7.24227
rtoes -28.6614
lfemur -15.1737 5.28384 -22.7442
ltibia 1.27222e-014
lfoot -5.88079 17.6116
ltoes -23.9211
955
root -5.03971 18.659 -7.56924 211.277 -7.5761 -176.447
lowerback 9.80526 -2.4967 5.94961
upperback 3.26193 -3.05383 3.01749
thorax -2.21581 -1.67901 0.155722
lowerneck -4.52006 3.75686 1.79608
upperneck -12.308 5.8837 -1.00062
head -3.08185 3.30099 -0.723782
rclavicle 2.85256e-014 -4.86029e-014
rhumerus 23.1198 -2.49364 -8.16078
rradius 120.963
rwrist -0.737791
rhand -29.5199 -7.08644
rfingers 7.12502
rthumb -2.8538 -37.0471
lclavicle 2.85256e-014 -4.86029e-014
lhumerus 125.004 16.756 77.5459
lradius 16.3729
lwrist -14.249
lhand -29.4344 -9.23068
lfingers 7.12502
lthumb -2.77123 20.7311
rfemur -55.4965 -10.2413 17.4394
rtibia 111.053
rfoot -13.4591 5.70928
rtoes -30.5485
lfemur -12.6634 5.50231 -21.8362
ltibia 0
lfoot -5.8305 19.3341
ltoes -24.015
956
root -5.08535 18.6112 -7.71414 211.549 -7.96186 -176.12
lowerback 9.38454 -2.92124 6.42084
upperback 3.23234 -3.60334 3.13192
thorax -2.05597 -1.94703 0.0585776
lowerneck -4.7409 4.26068 1.78278
upperneck -11.7791 6.48795 -1.1453
head -2.84778 3.58668 -0.750998
rclavicle 4.67144e-015 -3.08116e-014
rhumerus 20.9831 -2.38195 -8.76714
rradius 121.555
rwrist -3.13179
rhand -29.179 -6.53681
rfingers 7.12502
rthumb -2.52456 -36.5016
lclavicle 4.67144e-015 -3.08116e-014
lhumerus 123.109 16.8119 76.361
lradius 15.0641
lwrist -10.4803
lhand -26.7483 -7.66217
lfingers 7.12502
lthumb -0.176955 22.3175
rfemur -58.2287 -6.99301 18.9409
rtibia 105.727
rfoot -14.5191 4.31186
rtoes -32.0363
lfemur -11.7019 6.30619 -20.6287
ltibia 3.89533
lfoot -7.34384 20.1477
ltoes -23.7374
957
root -5.13396 18.5405 -7.87257 211.718 -7.89317 -175.658
lowerback 8.79702 -3.19858 6.93651
upperback 3.18609 -3.96646 3.10152
thorax -1.83116 -2.11597 -0.248212
lowerneck -5.02123 4.78645 1.75869
upperneck -11.0251 7.10465 -1.25079
head -2.53108 3.87031 -0.751954
rclavicle 7.97127e-014 4.37326e-015
rhumerus 19.1378 -2.21122 -9.19815
rradius 122.062
rwrist -4.97
rhand -29.4393 -6.01976
rfingers 7.12502
rthumb -2.77592 -35.9814
lclavicle 7.97127e-014 4.37326e-015
lhumerus 117.995 20.5682 69.5166
lradius 15.7217
lwrist -4.58962
lhand -23.7475 -5.10389
lfingers 7.12502
lthumb 2.72125 24.8585
rfemur -60.4695 -3.70182 19.8063
rtibia 100.135
rfoot -15.2918 3.34389
rtoes -32.9752
lfemur -9.85066 7.51608 -19.5129
ltibia 7.15828
lfoot -8.91821 20.2365
ltoes -22.2737
958
root -5.18768 18.4521 -8.04507 211.797 -7.40609 -175.153
lowerback 8.076 -3.35723 7.4396
upperback 3.12425 -4.18371 2.92159
thorax -1.55653 -2.20548 -0.729873
lowerneck -5.38611 5.3094 1.75562
upperneck -10.1048 7.70944 -1.32265
head -2.15032 4.14291 -0.733753
rclavicle -2.18663e-014 -2.0276e-014
rhumerus 17.5793 -1.98827 -9.39776
rradius 122.554
rwrist -5.91814
rhand -30.313 -5.73283
rfingers 7.12502
rthumb -3.61971 -35.6818
lclavicle -2.18663e-014 -2.0276e-014
lhumerus 109.262 25.5801 57.4886
lradius 18.3791
lwrist 1.99221
lhand -20.8084 -2.08296
lfingers 7.12502
lthumb 5.55936 27.8241
rfemur -62.2204 -0.54887 20.1713
rtibia 94.3541
rfoot -15.8187 2.93751
rtoes -33.4667
lfemur -7.15966 9.04762 -18.4795
ltibia 9.47915
lfoot -9.53229 19.7036
ltoes -21.3558
959
root -5.2456 18.3478 -8.22889 211.792 -6.58187 -174.771
lowerback 7.28062 -3.43848 7.80827
upperback 3.0497 -4.31143 2.58479
thorax -1.25529 -2.24393 -1.31514
lowerneck -5.81595 5.79202 1.81382
upperneck -9.12485 8.26246 -1.36061
head -1.74608 4.38818 -0.706679
rclavicle 8.34896e-015 -1.35174e-014
rhumerus 16.303 -1.8791 -9.34852
rradius 123.037
rwrist -6.15926
rhand -31.6381 -5.29703
rfingers 7.12502
rthumb -4.89928 -35.2204
lclavicle 8.34896e-015 -1.35174e-014
lhumerus 99.4813 28.2362 44.8903
lradius 21.6434
lwrist 5.1209
lhand -18.0951 0.234077
lfingers 7.12502
lthumb 8.17857 30.0558
rfemur -63.4935 2.2707 20.1249
rtibia 88.4621
rfoot -16.0429 3.16296
rtoes -33.4429
lfemur -3.63914 10.7176 -17.596
ltibia 10.8499
lfoot -9.04955 18.5998
ltoes -21.3912
960
root -5.30302 18.2011 -8.40677 211.688 -5.56494 -174.668
lowerback 6.47314 -3.50622 7.93727
upperback 2.96607 -4.43179 2.10569
thorax -0.954269 -2.2747 -1.91793
lowerneck -6.26637 6.20971 1.94512
upperneck -8.19559 8.73853 -1.35815
head -1.36219 4.59719 -0.676553
rclavicle 4.21423e-014 -1.66979e-014
rhumerus 15.2992 -1.95619 -9.01343
rradius 123.508
rwrist -5.67669
rhand -33.3101 -4.91303
rfingers 7.12502
rthumb -6.51356 -34.7929
lclavicle 4.21423e-014 -1.66979e-014
lhumerus 91.3869 28.1801 35.2403
lradius 24.607
lwrist 4.2681
lhand -15.4768 1.44452
lfingers 7.12502
lthumb 10.7048 31.1518
rfemur -64.4763 4.55667 19.779
rtibia 82.7356
rfoot -15.8675 3.90518
rtoes -32.9693
lfemur 0.452819 11.6231 -16.9072
ltibia 11.7408
lfoot -8.00245 17.5351
ltoes -22.2964
961
root -5.36216 18.0574 -8.59636 211.432 -4.51617 -174.922
lowerback 5.73986 -3.61987 7.77372
upperback 2.88906 -4.61824 1.51694
thorax -0.684737 -2.33936 -2.46421
lowerneck -6.68954 6.55184 2.14279
upperneck -7.4015 9.12837 -1.2945
head -1.03285 4.76799 -0.642
rclavicle 8.46823e-014 -1.98785e-014
rhumerus 14.6177 -2.35959 -8.37563
rradius 123.941
rwrist -4.8447
rhand -35.0129 -4.72517
rfingers 7.12502
rthumb -8.15727 -34.5477
lclavicle 8.46823e-014 -1.98785e-014
lhumerus 85.5301 26.5686 29.0979
lradius 27.3364
lwrist 1.73581
lhand -12.862 1.8518
lfingers 7.12502
lthumb 13.2262 31.4122
rfemur -64.8041 6.19621 19.3104
rtibia 77.0709
rfoot -15.3408 4.90832
rtoes -31.9794
lfemur 4.84773 12.4112 -16.4875
ltibia 12.6062
lfoot -6.46128 15.8644
ltoes -23.4834
962
root -5.41712 17.8948 -8.78463 210.993 -3.55868 -175.58
lowerback 5.10636 -3.80941 7.2675
upperback 2.8265 -4.91136 0.845756
thorax -0.450191 -2.46263 -2.89477
lowerneck -7.00614 6.81786 2.4158
upperneck -6.79594 9.43016 -1.17403
head -0.783806 4.90009 -0.612101
rclavicle 1.82882e-014 -3.97569e-015
rhumerus 14.2354 -3.14809 -7.43035
rradius 124.273
rwrist -3.91524
rhand -36.6778 -4.75864
rfingers 7.12502
rthumb -9.76378 -34.5123
lclavicle 1.82882e-014 -3.97569e-015
lhumerus 81.2102 24.2667 25.4217
lradius 30.0319
lwrist -0.139824
lhand -10.1934 1.87448
lfingers 7.12502
lthumb 15.7974 31.2499
rfemur -64.5955 7.10289 18.886
rtibia 71.8251
rfoot -14.7208 5.75159
rtoes -30.2194
lfemur 9.27757 12.9344 -16.2967
ltibia 13.9231
lfoot -4.88613 13.818
ltoes -24.5014
